<svg width="32" height="32" viewBox="0 0 32 32" fill="none" xmlns="http://www.w3.org/2000/svg">
  <!-- Background Circle -->
  <circle cx="16" cy="16" r="16" fill="#1e3a8a"/>
  
  <!-- V Shape - Main Logo -->
  <path d="M8 10L16 22L24 10L22 10L16 20L10 10Z" fill="#ffffff"/>
  
  <!-- Book Pages inside V -->
  <path d="M12 12C13 11.5, 14.5 11.5, 16 12C17.5 11.5, 19 11.5, 20 12" stroke="#e5e7eb" stroke-width="1" fill="none"/>
  <path d="M13 14C14 13.5, 15 13.5, 16 14C17 13.5, 18 13.5, 19 14" stroke="#e5e7eb" stroke-width="1" fill="none"/>
  
  <!-- Graduation Cap -->
  <path d="M10 9L16 7L22 9L16 11L10 9Z" fill="#ffffff"/>
  <ellipse cx="16" cy="9" rx="6" ry="1" fill="#ffffff"/>
  
  <!-- Orange Tassel -->
  <circle cx="20" cy="8" r="1" fill="#f97316"/>
  <line x1="20" y1="9" x2="21" y2="12" stroke="#f97316" stroke-width="1"/>
  <circle cx="21" cy="12" r="0.5" fill="#f97316"/>
</svg>