<?xml version="1.0" encoding="UTF-8"?>
<svg width="512" height="512" viewBox="0 0 200 200" fill="none" xmlns="http://www.w3.org/2000/svg" role="img" aria-labelledby="title desc">
  <title id="title">Veeru's Pro Academy logo</title>
  <desc id="desc">Graduation cap with V shape design for professional education</desc>
  
  <!-- Graduation Cap -->
  <path d="M100 40L160 60L100 80L40 60L100 40Z" fill="#1e3a8a" stroke="#ffffff" stroke-width="2"/>
  
  <!-- Cap Top -->
  <ellipse cx="100" cy="60" rx="60" ry="8" fill="#1e3a8a" stroke="#ffffff" stroke-width="1"/>
  
  <!-- Tassel -->
  <circle cx="145" cy="45" r="3" fill="#f97316"/>
  <line x1="145" y1="48" x2="155" y2="65" stroke="#f97316" stroke-width="2"/>
  <circle cx="155" cy="65" r="2" fill="#f97316"/>
  
  <!-- Book Pages -->
  <path d="M70 90C75 85, 85 85, 90 90C95 95, 105 95, 110 90C115 85, 125 85, 130 90" stroke="#e5e7eb" stroke-width="3" fill="none"/>
  <path d="M70 100C75 95, 85 95, 90 100C95 105, 105 105, 110 100C115 95, 125 95, 130 100" stroke="#e5e7eb" stroke-width="3" fill="none"/>
  <path d="M70 110C75 105, 85 105, 90 110C95 115, 105 115, 110 110C115 105, 125 105, 130 110" stroke="#e5e7eb" stroke-width="3" fill="none"/>
  
  <!-- V Shape -->
  <path d="M60 120L100 180L140 120L120 120L100 150L80 120Z" fill="#1e3a8a" stroke="#ffffff" stroke-width="2"/>
  
  <!-- Inner V highlight -->
  <path d="M80 130L100 160L120 130L110 130L100 145L90 130Z" fill="#3b82f6"/>
</svg>
